<svg width="21" height="24" viewBox="0 0 21 24" fill="none" xmlns="http://www.w3.org/2000/svg">
<path d="M4.25243 18H5.90899V20H15.8484V4H5.90899V6H4.25243V3C4.25243 2.73478 4.33969 2.48043 4.49503 2.29289C4.65036 2.10536 4.86104 2 5.08071 2H16.6767C16.8963 2 17.107 2.10536 17.2624 2.29289C17.4177 2.48043 17.505 2.73478 17.505 3V21C17.505 21.2652 17.4177 21.5196 17.2624 21.7071C17.107 21.8946 16.8963 22 16.6767 22H5.08071C4.86104 22 4.65036 21.8946 4.49503 21.7071C4.33969 21.5196 4.25243 21.2652 4.25243 21V18ZM5.90899 11H11.707V13H5.90899V16L1.76758 12L5.90899 8V11Z" fill="#B0C3D4"/>
</svg>
