<svg width="76" height="45" viewBox="0 0 76 45" fill="none" xmlns="http://www.w3.org/2000/svg">
<g filter="url(#filter0_d_115_1161)">
<path d="M14.6943 26.262C13.377 26.262 12.2937 25.95 11.4443 25.326C10.6123 24.702 9.997 23.896 9.59834 22.908C9.217 21.92 9.02634 20.8973 9.02634 19.84C9.02634 18.4707 9.23434 17.1013 9.65034 15.732C10.0663 14.3453 10.6383 13.028 11.3663 11.78C12.1117 10.532 12.9523 9.42267 13.8883 8.452C14.8243 7.48133 15.821 6.71867 16.8783 6.164C17.953 5.592 19.019 5.306 20.0763 5.306C20.839 5.306 21.4803 5.488 22.0003 5.852C22.5203 6.19867 22.7803 6.80533 22.7803 7.672C22.7803 8.192 22.685 8.77267 22.4943 9.414C22.321 10.0553 22.0783 10.6793 21.7663 11.286C21.4717 11.8753 21.1337 12.3607 20.7523 12.742C20.371 13.1233 19.981 13.314 19.5823 13.314C19.409 13.314 19.227 13.2533 19.0363 13.132C18.8457 13.0107 18.6723 12.8027 18.5163 12.508C18.7763 12.2133 19.071 11.858 19.4003 11.442C19.7297 11.0087 20.0417 10.558 20.3363 10.09C20.631 9.60467 20.8737 9.13667 21.0643 8.686C21.255 8.218 21.3503 7.81067 21.3503 7.464C21.3503 7.152 21.2637 6.90933 21.0903 6.736C20.917 6.54533 20.6137 6.45 20.1803 6.45C19.4177 6.45 18.629 6.736 17.8143 7.308C17.017 7.88 16.2457 8.65133 15.5003 9.622C14.755 10.5753 14.079 11.65 13.4723 12.846C12.883 14.0247 12.415 15.2467 12.0683 16.512C11.7217 17.76 11.5483 18.9473 11.5483 20.074C11.5483 20.906 11.6697 21.7033 11.9123 22.466C12.1723 23.2113 12.5797 23.818 13.1343 24.286C13.689 24.7713 14.417 25.014 15.3183 25.014C16.2543 25.014 17.1817 24.754 18.1003 24.234C19.0363 23.714 19.8857 23.0293 20.6483 22.18C21.4283 21.3307 22.0523 20.4207 22.5203 19.45L23.1963 19.892C22.5897 21.0533 21.8617 22.1193 21.0123 23.09C20.163 24.0433 19.201 24.806 18.1263 25.378C17.069 25.9673 15.925 26.262 14.6943 26.262ZM24.1413 24.78C23.3266 24.78 22.7546 24.5113 22.4253 23.974C22.1133 23.4193 21.9573 22.7693 21.9573 22.024C21.9573 21.1747 22.1133 20.178 22.4253 19.034C22.7373 17.89 23.1446 16.694 23.6473 15.446C24.1673 14.1807 24.7306 12.95 25.3373 11.754C25.9613 10.5407 26.5853 9.44867 27.2093 8.478C27.8333 7.50733 28.4053 6.736 28.9253 6.164C29.4626 5.57467 29.8959 5.28 30.2253 5.28C30.4506 5.28 30.6413 5.40133 30.7973 5.644C30.9533 5.86933 31.0746 6.14667 31.1613 6.476C31.2653 6.788 31.3173 7.08267 31.3173 7.36C31.3173 7.828 31.1959 8.44333 30.9533 9.206C30.7279 9.95133 30.3986 10.7747 29.9653 11.676C29.5493 12.5773 29.0466 13.5047 28.4573 14.458C27.8853 15.394 27.2439 16.2867 26.5333 17.136C25.8399 17.9853 25.0946 18.722 24.2973 19.346C24.2279 19.7793 24.1586 20.2127 24.0893 20.646C24.0373 21.062 24.0113 21.4433 24.0113 21.79C24.0113 22.414 24.1153 22.8733 24.3233 23.168C24.5313 23.4453 24.7999 23.584 25.1293 23.584C25.5626 23.584 26.0046 23.3847 26.4553 22.986C26.9233 22.57 27.3653 22.05 27.7813 21.426C28.2146 20.7847 28.5873 20.126 28.8993 19.45L29.5233 19.788C28.7779 21.3307 27.9459 22.5527 27.0273 23.454C26.1086 24.338 25.1466 24.78 24.1413 24.78ZM24.7653 17.734C25.3546 17.0927 25.9093 16.3993 26.4293 15.654C26.9666 14.8913 27.4519 14.12 27.8853 13.34C28.3359 12.56 28.7259 11.806 29.0553 11.078C29.3846 10.35 29.6359 9.7 29.8093 9.128C29.9999 8.53867 30.1039 8.07067 30.1213 7.724C30.1213 7.70667 30.1213 7.698 30.1213 7.698C30.1213 7.68067 30.1213 7.66333 30.1213 7.646C29.9826 7.646 29.7573 7.84533 29.4453 8.244C29.1506 8.62533 28.7953 9.154 28.3793 9.83C27.9633 10.506 27.5299 11.2773 27.0793 12.144C26.6459 13.0107 26.2213 13.9293 25.8053 14.9C25.4066 15.8533 25.0599 16.798 24.7653 17.734ZM30.3583 24.78C29.5957 24.78 29.0237 24.5547 28.6423 24.104C28.261 23.6533 28.0703 23.1073 28.0703 22.466C28.0703 22.0673 28.1397 21.5647 28.2783 20.958C28.417 20.3513 28.6077 19.7187 28.8503 19.06C29.1103 18.384 29.405 17.7513 29.7343 17.162C30.0637 16.5727 30.419 16.096 30.8003 15.732C31.1817 15.3507 31.563 15.16 31.9443 15.16C32.1523 15.16 32.3343 15.2293 32.4903 15.368C32.6463 15.4893 32.7243 15.6713 32.7243 15.914C32.7243 16.1393 32.5857 16.4773 32.3083 16.928C32.0483 17.3787 31.7363 17.8987 31.3723 18.488C31.0257 19.0773 30.7137 19.6927 30.4363 20.334C30.1763 20.958 30.0463 21.556 30.0463 22.128C30.0463 22.6827 30.1417 23.0553 30.3323 23.246C30.5403 23.4193 30.835 23.506 31.2163 23.506C31.8057 23.506 32.447 23.2113 33.1403 22.622C33.8337 22.0327 34.553 21.0013 35.2983 19.528L35.6883 19.944C35.0817 21.4693 34.3103 22.6567 33.3743 23.506C32.4383 24.3553 31.433 24.78 30.3583 24.78ZM33.4263 13.054C33.097 13.054 32.7937 12.976 32.5163 12.82C32.2563 12.6467 32.1263 12.3867 32.1263 12.04C32.1263 11.624 32.3517 11.2687 32.8023 10.974C33.253 10.6793 33.721 10.532 34.2063 10.532C34.5183 10.532 34.7783 10.6013 34.9863 10.74C35.2117 10.8787 35.3243 11.13 35.3243 11.494C35.3243 11.858 35.125 12.2133 34.7263 12.56C34.3277 12.8893 33.8943 13.054 33.4263 13.054ZM40.242 31.28C39.9646 31.28 39.7046 31.1327 39.462 30.838C39.2366 30.5607 39.124 30.0233 39.124 29.226C39.124 28.6887 39.1673 28.0127 39.254 27.198C39.358 26.3833 39.4966 25.5167 39.67 24.598C39.8606 23.6793 40.0686 22.8127 40.294 21.998C39.6006 22.8473 38.9333 23.5493 38.292 24.104C37.6506 24.6587 37.0266 24.936 36.42 24.936C36.1253 24.936 35.8046 24.8493 35.458 24.676C35.1286 24.52 34.8513 24.2687 34.626 23.922C34.3833 23.5753 34.262 23.116 34.262 22.544C34.262 21.9373 34.4006 21.2787 34.678 20.568C34.9726 19.8573 35.3626 19.1553 35.848 18.462C36.3506 17.7687 36.9226 17.1447 37.564 16.59C38.2053 16.018 38.89 15.5673 39.618 15.238C40.346 14.8913 41.0826 14.718 41.828 14.718C42.4866 14.718 43.0413 14.8567 43.492 15.134C43.9426 15.394 44.168 15.7407 44.168 16.174C44.168 16.3127 44.1333 16.4773 44.064 16.668C44.012 16.8413 43.908 16.9713 43.752 17.058C43.596 17.1447 43.3793 17.136 43.102 17.032C43.102 16.668 42.972 16.3733 42.712 16.148C42.452 15.9227 42.1053 15.81 41.672 15.81C41.0826 15.81 40.5193 15.9747 39.982 16.304C39.462 16.616 38.9853 17.0233 38.552 17.526C38.1186 18.0287 37.7373 18.5747 37.408 19.164C37.096 19.736 36.8533 20.2907 36.68 20.828C36.5066 21.3653 36.42 21.8247 36.42 22.206C36.42 22.518 36.4893 22.7867 36.628 23.012C36.784 23.2373 37.0006 23.35 37.278 23.35C37.6073 23.35 37.9626 23.1853 38.344 22.856C38.7426 22.5267 39.15 22.102 39.566 21.582C39.982 21.0447 40.398 20.464 40.814 19.84C41.2473 19.216 41.672 18.6093 42.088 18.02C42.244 17.7947 42.374 17.6213 42.478 17.5C42.582 17.3787 42.6946 17.2573 42.816 17.136C42.9026 17.0493 43.0846 17.0407 43.362 17.11C43.6566 17.1793 43.8473 17.2573 43.934 17.344C44.0726 17.4827 44.142 17.6473 44.142 17.838C44.142 18.202 44.0033 18.6093 43.726 19.06C43.4486 19.4933 43.128 20.048 42.764 20.724C42.4173 21.3827 42.1226 22.2233 41.88 23.246C42.5906 23.1593 43.31 22.83 44.038 22.258C44.7833 21.686 45.4766 20.802 46.118 19.606L46.586 20.022C45.9446 21.3047 45.208 22.258 44.376 22.882C43.5613 23.506 42.7293 23.8873 41.88 24.026C42.0186 24.442 42.1226 24.884 42.192 25.352C42.2786 25.82 42.322 26.288 42.322 26.756C42.322 27.6053 42.2353 28.368 42.062 29.044C41.8886 29.7373 41.646 30.2833 41.334 30.682C41.022 31.0807 40.658 31.28 40.242 31.28ZM40.788 29.59C40.892 29.59 40.97 29.434 41.022 29.122C41.0913 28.8273 41.1346 28.446 41.152 27.978C41.1866 27.51 41.204 27.0507 41.204 26.6C41.204 26.3053 41.1953 26.0713 41.178 25.898C41.178 25.7247 41.1606 25.5513 41.126 25.378C40.9873 26.0713 40.8746 26.7127 40.788 27.302C40.7186 27.9087 40.684 28.4893 40.684 29.044C40.684 29.2693 40.6926 29.4167 40.71 29.486C40.7273 29.5553 40.7533 29.59 40.788 29.59ZM47.4438 24.78C46.8544 24.78 46.3691 24.5113 45.9878 23.974C45.6238 23.4193 45.4418 22.7867 45.4418 22.076C45.4418 21.5907 45.5198 21.0187 45.6758 20.36C45.8318 19.7013 46.0311 19.06 46.2738 18.436C46.5338 17.812 46.7938 17.292 47.0538 16.876C47.3311 16.46 47.5824 16.252 47.8078 16.252C47.9291 16.252 48.1111 16.3213 48.3538 16.46C48.6138 16.5813 48.8391 16.7373 49.0298 16.928C48.8391 17.2053 48.6051 17.63 48.3278 18.202C48.0678 18.774 47.8338 19.3893 47.6258 20.048C47.4178 20.7067 47.3138 21.3047 47.3138 21.842C47.3138 21.9113 47.3224 22.076 47.3398 22.336C47.3744 22.596 47.4438 22.8387 47.5478 23.064C47.6518 23.2893 47.8338 23.402 48.0938 23.402C48.3884 23.402 48.7004 23.246 49.0298 22.934C49.3764 22.6047 49.7231 22.1887 50.0698 21.686C50.4338 21.166 50.7804 20.6113 51.1098 20.022C51.4564 19.4327 51.7598 18.8607 52.0198 18.306C52.2971 17.7513 52.5224 17.2833 52.6958 16.902C52.8518 16.9193 53.0511 16.9627 53.2938 17.032C53.5538 17.1013 53.7791 17.1967 53.9698 17.318C54.1604 17.422 54.2558 17.578 54.2558 17.786C54.2558 17.838 54.1691 18.0547 53.9958 18.436C53.8398 18.8 53.6491 19.242 53.4238 19.762C53.2158 20.282 53.0251 20.8193 52.8518 21.374C52.6958 21.9113 52.6178 22.388 52.6178 22.804C52.6178 23.0467 52.6611 23.2633 52.7478 23.454C52.8518 23.6273 53.0424 23.714 53.3198 23.714C53.6838 23.714 54.1171 23.5493 54.6198 23.22C55.1224 22.8907 55.6424 22.414 56.1798 21.79C56.7171 21.166 57.1938 20.4207 57.6098 19.554L57.9998 19.866C57.6184 20.802 57.1244 21.6427 56.5178 22.388C55.9111 23.1333 55.2611 23.714 54.5678 24.13C53.8744 24.5633 53.1984 24.78 52.5398 24.78C52.0371 24.78 51.6558 24.6587 51.3958 24.416C51.1531 24.1907 50.9884 23.896 50.9018 23.532C50.8151 23.1507 50.7631 22.7693 50.7458 22.388C50.7458 22.3013 50.7458 22.2147 50.7458 22.128C50.7458 22.024 50.7458 21.9373 50.7458 21.868C50.4511 22.336 50.1304 22.7953 49.7838 23.246C49.4371 23.6793 49.0644 24.0433 48.6658 24.338C48.2844 24.6327 47.8771 24.78 47.4438 24.78ZM59.9603 25.144C58.851 25.144 57.993 24.8407 57.3863 24.234C56.797 23.6447 56.5023 22.8993 56.5023 21.998C56.5023 21.2353 56.693 20.4293 57.0743 19.58C57.473 18.7133 58.0017 17.9073 58.6603 17.162C59.319 16.3993 60.047 15.784 60.8443 15.316C61.6417 14.848 62.439 14.614 63.2363 14.614C63.687 14.614 64.1117 14.7353 64.5103 14.978C64.9263 15.2033 65.1343 15.6627 65.1343 16.356C65.1343 17.0147 64.9437 17.63 64.5623 18.202C64.181 18.774 63.6697 19.2853 63.0283 19.736C62.387 20.1867 61.6763 20.5593 60.8963 20.854C60.1337 21.1313 59.3623 21.3133 58.5823 21.4C58.565 21.4693 58.5477 21.5473 58.5303 21.634C58.5303 21.7033 58.5303 21.8247 58.5303 21.998C58.5303 22.0847 58.539 22.2407 58.5563 22.466C58.591 22.674 58.669 22.8993 58.7903 23.142C58.9117 23.3847 59.111 23.5927 59.3883 23.766C59.6657 23.9393 60.047 24.026 60.5323 24.026C61.2603 24.026 61.9883 23.8267 62.7163 23.428C63.4617 23.012 64.155 22.466 64.7963 21.79C65.455 21.114 66.001 20.36 66.4343 19.528L66.9543 19.944C66.4863 20.984 65.8797 21.894 65.1343 22.674C64.4063 23.454 63.5917 24.0607 62.6903 24.494C61.8063 24.9273 60.8963 25.144 59.9603 25.144ZM58.8683 20.438C59.319 20.386 59.8217 20.23 60.3763 19.97C60.931 19.71 61.4597 19.3807 61.9623 18.982C62.4823 18.5833 62.907 18.15 63.2363 17.682C63.5657 17.1967 63.7303 16.7113 63.7303 16.226C63.7303 16.0353 63.6957 15.9053 63.6263 15.836C63.557 15.7667 63.4443 15.732 63.2883 15.732C62.8897 15.732 62.4737 15.8793 62.0403 16.174C61.607 16.4513 61.1823 16.824 60.7663 17.292C60.3503 17.7427 59.9777 18.2453 59.6483 18.8C59.319 19.3547 59.059 19.9007 58.8683 20.438Z" fill="white"/>
</g>
<defs>
<filter id="filter0_d_115_1161" x="0.0263672" y="0.280029" width="75.928" height="44" filterUnits="userSpaceOnUse" color-interpolation-filters="sRGB">
<feFlood flood-opacity="0" result="BackgroundImageFix"/>
<feColorMatrix in="SourceAlpha" type="matrix" values="0 0 0 0 0 0 0 0 0 0 0 0 0 0 0 0 0 0 127 0" result="hardAlpha"/>
<feOffset dy="4"/>
<feGaussianBlur stdDeviation="4.5"/>
<feComposite in2="hardAlpha" operator="out"/>
<feColorMatrix type="matrix" values="0 0 0 0 0 0 0 0 0 0 0 0 0 0 0 0 0 0 0.25 0"/>
<feBlend mode="normal" in2="BackgroundImageFix" result="effect1_dropShadow_115_1161"/>
<feBlend mode="normal" in="SourceGraphic" in2="effect1_dropShadow_115_1161" result="shape"/>
</filter>
</defs>
</svg>
