<svg width="34" height="39" viewBox="0 0 34 39" fill="none" xmlns="http://www.w3.org/2000/svg">
<g clip-path="url(#clip0_115_1159)">
<path fill-rule="evenodd" clip-rule="evenodd" d="M13.3734 37.5835C14.8386 38.3711 16.4812 38.7699 18.1444 38.7417C19.806 38.7567 21.4439 38.3454 22.9017 37.5476L30.7249 33.0228C30.995 32.9089 31.2606 32.7826 31.5205 32.6439L31.4854 32.583C32.059 32.2461 32.588 31.8386 33.0602 31.3696C33.3402 31.0959 33.5624 30.7686 33.7145 30.4076C33.8662 30.0469 33.9444 29.659 33.9444 29.2674C33.9444 28.8759 33.8662 28.4881 33.7145 28.1271C33.5624 27.7661 33.3402 27.4392 33.0602 27.1653C32.5878 26.7002 32.0592 26.2953 31.4873 25.96C28.8171 24.4038 24.5933 24.4065 21.9065 25.96L18.0883 28.1661L10.529 23.8018V14.9502L18.1061 10.5757L21.9314 12.7857C24.621 14.3337 28.8309 14.3365 31.515 12.7857C32.0869 12.4505 32.6151 12.0457 33.0878 11.5806C33.3675 11.3069 33.5901 10.9801 33.7418 10.6193C33.8936 10.2586 33.9718 9.87114 33.9718 9.47972C33.9718 9.08833 33.8936 8.7009 33.7418 8.34014C33.5901 7.97938 33.3675 7.65257 33.0878 7.37891C32.6126 6.90443 32.0783 6.49289 31.4984 6.15438L30.5337 7.82951C30.9721 8.08802 31.3762 8.40101 31.7361 8.76102C31.8312 8.85445 31.9069 8.96585 31.9586 9.08875C32.0103 9.21167 32.0371 9.34361 32.0374 9.47696C32.0346 9.74641 31.9252 10.0038 31.7333 10.1929C31.3765 10.5477 30.9759 10.856 30.5419 11.1106C28.4715 12.3131 24.9693 12.3103 22.8934 11.1106L20.0375 9.46068L22.9348 7.78804C24.9969 6.59666 28.4798 6.59666 30.5419 7.78804L31.5094 6.11292L22.9403 1.15941C20.3364 -0.344331 16.2979 -0.385794 13.6166 1.03778L13.3788 1.15941C11.949 1.98279 10.6854 3.40166 9.81795 5.01533C7.94771 4.96637 6.1435 5.3746 4.78211 6.15988C2.18375 7.66086 0.129935 11.1189 0.0166016 14.1596L0 14.436C0 16.0686 0.584789 17.8517 1.53102 19.3985C0.561558 21.001 0.0138346 22.7625 0.0138346 24.3319C0.0138346 27.1183 1.70274 30.3274 3.98322 32.0717L3.94179 32.1463L4.77106 32.6273C6.14211 33.4206 7.96371 33.8242 9.85168 33.7744C10.6619 35.3376 11.8785 36.6534 13.3734 37.5835ZM2.81075 21.1002C2.25693 22.201 1.94326 23.3592 1.94326 24.3651C1.94326 26.7451 3.68472 29.7635 5.74683 30.9522L6.15317 31.1678C7.05738 31.5647 8.02759 31.7897 9.01417 31.8312C8.75011 31.0193 8.61032 30.1724 8.59954 29.3185V24.9112L4.77106 22.701C4.06845 22.2953 3.40586 21.7458 2.81075 21.1002ZM8.59954 22.6879L5.74959 21.0425C5.08424 20.6549 4.45245 20.0784 3.90176 19.3953C4.42028 18.7543 5.04364 18.2034 5.74683 17.7669L8.59954 16.1084V22.6879ZM10.529 26.025V29.277C10.5487 30.1027 10.7163 30.9182 11.0238 31.6847C11.835 31.5669 12.6185 31.3049 13.3374 30.9107L16.1638 29.2779L10.529 26.025ZM18.143 30.4203L14.3325 32.6217C13.5918 33.0414 12.791 33.3443 11.958 33.5201C12.5632 34.4876 13.3809 35.3044 14.3491 35.9084C16.4112 37.097 19.8969 37.097 21.9562 35.9084L25.722 33.7338C24.4091 33.6393 23.1315 33.2639 21.9756 32.6328L18.143 30.4203ZM20.0674 29.3085L22.9431 30.9687C23.8728 31.4666 24.8983 31.7596 25.9506 31.8284C27.4663 31.9561 28.9929 31.7151 30.1406 31.1824L30.5392 30.9522C30.977 30.6937 31.3809 30.3819 31.7416 30.0234C31.8375 29.9302 31.9138 29.8188 31.9658 29.6955C32.0178 29.5723 32.0446 29.4398 32.0446 29.3061C32.0446 29.1725 32.0178 29.0401 31.9658 28.9169C31.9138 28.7936 31.8375 28.6822 31.7416 28.5887C31.3848 28.2349 30.9856 27.9267 30.553 27.671C28.4798 26.4742 24.9776 26.477 22.9017 27.671L20.0674 29.3085ZM2.80243 17.6787C2.31131 16.6961 1.99814 15.647 1.95156 14.6848V14.425C1.95156 12.0422 3.69304 9.02639 5.75515 7.83501C6.61853 7.33645 7.77312 7.03106 8.99999 6.96024C8.74546 7.78674 8.60507 8.62245 8.60507 9.4217V13.8445L4.78491 16.0558C4.04979 16.5031 3.38292 17.0498 2.80243 17.6787ZM11.0366 7.05317C10.7264 7.8676 10.5483 8.69811 10.5483 9.46314V12.7581L16.2179 9.48484L13.3623 7.83501C12.6349 7.44517 11.8485 7.1814 11.0366 7.05317ZM11.9509 5.26251C12.7775 5.44987 13.5764 5.75125 14.3243 6.15988L18.1493 8.3698L21.9867 6.15436C23.1431 5.52303 24.4211 5.14608 25.735 5.04867L21.9811 2.8843C19.9218 1.69291 16.4361 1.69291 14.374 2.8843L14.1418 2.99487C13.319 3.52077 12.5584 4.3303 11.9509 5.26251Z" fill="url(#paint0_linear_115_1159)"/>
</g>
<defs>
<linearGradient id="paint0_linear_115_1159" x1="30.4065" y1="6.35772" x2="1.24391" y2="34.9675" gradientUnits="userSpaceOnUse">
<stop stop-color="#00BDE3"/>
<stop offset="1" stop-color="#0082D9"/>
</linearGradient>
<clipPath id="clip0_115_1159">
<rect width="34" height="38.9756" fill="white"/>
</clipPath>
</defs>
</svg>
