<svg width="72" height="72" viewBox="0 0 72 72" fill="none" xmlns="http://www.w3.org/2000/svg">
<g filter="url(#filter0_d_150_1038)">
<circle cx="36" cy="32" r="32" fill="white"/>
<g clip-path="url(#clip0_150_1038)">
<path fill-rule="evenodd" clip-rule="evenodd" d="M30.4344 53.1301C32.3957 54.0497 34.5944 54.5154 36.8207 54.4825C39.045 54.4999 41.2373 54.0196 43.1886 53.0881L53.6606 47.8046C54.0221 47.6716 54.3777 47.5241 54.7255 47.3621L54.6785 47.2911C55.4462 46.8976 56.1544 46.4219 56.7864 45.8741C57.1612 45.5546 57.4587 45.1724 57.6622 44.7509C57.8654 44.3296 57.9701 43.8768 57.9701 43.4194C57.9701 42.9624 57.8654 42.5095 57.6622 42.088C57.4587 41.6664 57.1612 41.2847 56.7864 40.9649C56.1541 40.4218 55.4466 39.9491 54.6811 39.5575C51.1068 37.7403 45.453 37.7435 41.8565 39.5575L36.7456 42.1335L26.627 37.0373V26.7015L36.7695 21.5935L41.8899 24.1741C45.4901 25.9817 51.1253 25.9849 54.7181 24.1741C55.4836 23.7826 56.1907 23.31 56.8234 22.7669C57.1979 22.4473 57.4957 22.0657 57.6989 21.6444C57.902 21.2232 58.0067 20.7708 58.0067 20.3137C58.0067 19.8567 57.902 19.4043 57.6989 18.9831C57.4957 18.5618 57.1979 18.1802 56.8234 17.8607C56.1874 17.3066 55.4721 16.8261 54.6959 16.4308L53.4045 18.3868C53.9914 18.6887 54.5323 19.0542 55.0141 19.4745C55.1413 19.5836 55.2427 19.7137 55.3119 19.8572C55.3811 20.0008 55.417 20.1548 55.4174 20.3105C55.4137 20.6252 55.2672 20.9257 55.0104 21.1465C54.5327 21.5608 53.9965 21.9208 53.4156 22.2181C50.6443 23.6222 45.9563 23.619 43.1775 22.2181L39.3548 20.2915L43.233 18.3384C45.9932 16.9472 50.6554 16.9472 53.4156 18.3384L54.7107 16.3824L43.2404 10.5983C39.7549 8.84238 34.3491 8.79396 30.76 10.4562L30.4417 10.5983C28.5278 11.5597 26.8364 13.2165 25.6753 15.1008C23.1718 15.0436 20.7568 15.5203 18.9345 16.4372C15.4564 18.1899 12.7073 22.2278 12.5555 25.7783L12.5333 26.1011C12.5333 28.0075 13.3161 30.0896 14.5827 31.8957C13.285 33.767 12.5518 35.8238 12.5518 37.6564C12.5518 40.91 14.8125 44.6573 17.8651 46.694L17.8097 46.7811L18.9197 47.3427C20.7549 48.2691 23.1933 48.7403 25.7204 48.6822C26.805 50.5075 28.4335 52.0439 30.4344 53.1301ZM16.2957 33.8828C15.5544 35.1682 15.1345 36.5206 15.1345 37.6952C15.1345 40.4742 17.4655 43.9988 20.2258 45.3867L20.7697 45.6385C21.9801 46.102 23.2788 46.3647 24.5994 46.4131C24.2459 45.4652 24.0588 44.4762 24.0443 43.4791V38.3328L18.9197 35.752C17.9792 35.2783 17.0923 34.6367 16.2957 33.8828ZM24.0443 35.7367L20.2295 33.8154C19.3389 33.3628 18.4932 32.6897 17.7561 31.892C18.4501 31.1435 19.2845 30.5003 20.2258 29.9905L24.0443 28.0539V35.7367ZM26.627 39.6333V43.4307C26.6534 44.3948 26.8778 45.347 27.2893 46.2421C28.3752 46.1046 29.424 45.7986 30.3863 45.3383L34.1696 43.4317L26.627 39.6333ZM36.8188 44.7657L31.7183 47.3363C30.7269 47.8262 29.6548 48.18 28.5399 48.3853C29.3499 49.515 30.4445 50.4688 31.7405 51.1741C34.5007 52.562 39.1665 52.562 41.9231 51.1741L46.9639 48.6348C45.2064 48.5244 43.4962 48.0861 41.949 47.3492L36.8188 44.7657ZM39.3948 43.4675L43.2441 45.4061C44.4886 45.9874 45.8612 46.3295 47.2698 46.4099C49.2987 46.559 51.3421 46.2776 52.8784 45.6556L53.4119 45.3867C53.998 45.0849 54.5386 44.7208 55.0215 44.3022C55.1499 44.1934 55.252 44.0634 55.3215 43.9194C55.3911 43.7754 55.427 43.6208 55.427 43.4646C55.427 43.3087 55.3911 43.1541 55.3215 43.0101C55.252 42.8662 55.1499 42.7361 55.0215 42.627C54.5438 42.2139 54.0095 41.854 53.4304 41.5554C50.6554 40.1579 45.9674 40.1611 43.1886 41.5554L39.3948 43.4675ZM16.2846 29.8875C15.6272 28.7401 15.208 27.5152 15.1456 26.3916V26.0882C15.1456 23.3059 17.4767 19.7844 20.237 18.3932C21.3926 17.8111 22.9381 17.4545 24.5804 17.3718C24.2397 18.3369 24.0517 19.3127 24.0517 20.246V25.4104L18.9382 27.9926C17.9542 28.5148 17.0616 29.1532 16.2846 29.8875ZM27.3065 17.4803C26.8912 18.4313 26.6528 19.4011 26.6528 20.2944V24.1418L34.2421 20.3197L30.4196 18.3932C29.446 17.938 28.3933 17.63 27.3065 17.4803ZM28.5304 15.3894C29.6368 15.6082 30.7062 15.9601 31.7072 16.4372L36.8273 19.0177L41.9638 16.4308C43.5118 15.6936 45.2224 15.2534 46.9812 15.1397L41.9564 12.6124C39.1999 11.2212 34.5341 11.2212 31.7738 12.6124L31.463 12.7415C30.3616 13.3556 29.3435 14.3009 28.5304 15.3894Z" fill="url(#paint0_linear_150_1038)"/>
</g>
</g>
<defs>
<filter id="filter0_d_150_1038" x="0" y="0" width="72" height="72" filterUnits="userSpaceOnUse" color-interpolation-filters="sRGB">
<feFlood flood-opacity="0" result="BackgroundImageFix"/>
<feColorMatrix in="SourceAlpha" type="matrix" values="0 0 0 0 0 0 0 0 0 0 0 0 0 0 0 0 0 0 127 0" result="hardAlpha"/>
<feOffset dy="4"/>
<feGaussianBlur stdDeviation="2"/>
<feComposite in2="hardAlpha" operator="out"/>
<feColorMatrix type="matrix" values="0 0 0 0 0 0 0 0 0 0 0 0 0 0 0 0 0 0 0.25 0"/>
<feBlend mode="normal" in2="BackgroundImageFix" result="effect1_dropShadow_150_1038"/>
<feBlend mode="normal" in="SourceGraphic" in2="effect1_dropShadow_150_1038" result="shape"/>
</filter>
<linearGradient id="paint0_linear_150_1038" x1="53.2343" y1="16.6682" x2="19.409" y2="54.7086" gradientUnits="userSpaceOnUse">
<stop stop-color="#00BDE3"/>
<stop offset="1" stop-color="#0082D9"/>
</linearGradient>
<clipPath id="clip0_150_1038">
<rect width="45.5111" height="45.5111" fill="white" transform="translate(12.5333 9.24445)"/>
</clipPath>
</defs>
</svg>
