<svg width="32" height="32" viewBox="0 0 32 32" fill="none" xmlns="http://www.w3.org/2000/svg">
<g clip-path="url(#clip0_199_1139)">
<path d="M16 29.3334C8.63599 29.3334 2.66666 23.364 2.66666 16C2.66666 8.63602 8.63599 2.66669 16 2.66669C23.364 2.66669 29.3333 8.63602 29.3333 16C29.3333 23.364 23.364 29.3334 16 29.3334ZM16 26.6667C18.829 26.6667 21.5421 25.5429 23.5425 23.5425C25.5429 21.5421 26.6667 18.829 26.6667 16C26.6667 13.171 25.5429 10.4579 23.5425 8.45755C21.5421 6.45716 18.829 5.33335 16 5.33335C13.171 5.33335 10.4579 6.45716 8.45752 8.45755C6.45713 10.4579 5.33332 13.171 5.33332 16C5.33332 18.829 6.45713 21.5421 8.45752 23.5425C10.4579 25.5429 13.171 26.6667 16 26.6667V26.6667ZM16 14.1147L19.7707 10.3427L21.6573 12.2294L17.8853 16L21.6573 19.7707L19.7707 21.6574L16 17.8854L12.2293 21.6574L10.3427 19.7707L14.1147 16L10.3427 12.2294L12.2293 10.3427L16 14.1147Z" fill="#CFCFCF"/>
</g>
<defs>
<clipPath id="clip0_199_1139">
<rect width="32" height="32" fill="white"/>
</clipPath>
</defs>
</svg>
