<svg width="24" height="24" viewBox="0 0 24 24" fill="none" xmlns="http://www.w3.org/2000/svg">
<path fill-rule="evenodd" clip-rule="evenodd" d="M9.21714 22.565C10.1978 23.0248 11.2971 23.2577 12.4103 23.2412C13.5224 23.25 14.6186 23.0098 15.5942 22.5441L20.8302 19.9023C21.011 19.8358 21.1888 19.7621 21.3627 19.6811L21.3392 19.6455C21.7231 19.4488 22.0772 19.2109 22.3931 18.9371C22.5806 18.7773 22.7293 18.5862 22.8311 18.3754C22.9326 18.1648 22.985 17.9384 22.985 17.7097C22.985 17.4812 22.9326 17.2548 22.8311 17.044C22.7293 16.8332 22.5806 16.6423 22.3931 16.4824C22.077 16.2109 21.7232 15.9745 21.3405 15.7788C19.5533 14.8702 16.7265 14.8718 14.9282 15.7788L12.3727 17.0667L7.31344 14.5187V9.35074L12.3847 6.79676L14.9449 8.08706C16.745 8.99083 19.5626 8.99244 21.359 8.08706C21.7417 7.89131 22.0953 7.65498 22.4116 7.38343C22.5989 7.22366 22.7478 7.03285 22.8494 6.82222C22.9509 6.6116 23.0033 6.3854 23.0033 6.15687C23.0033 5.92837 22.9509 5.70217 22.8494 5.49154C22.7478 5.28091 22.5989 5.09011 22.4116 4.93033C22.0936 4.65331 21.736 4.41304 21.3479 4.2154L20.7022 5.19341C20.9956 5.34434 21.2661 5.52708 21.507 5.73727C21.5706 5.79182 21.6213 5.85686 21.6559 5.92861C21.6905 6.00038 21.7084 6.07741 21.7086 6.15526C21.7068 6.31258 21.6335 6.46285 21.5051 6.57325C21.2663 6.78038 20.9982 6.96039 20.7078 7.10906C19.3221 7.81109 16.9781 7.80948 15.5887 7.10906L13.6773 6.14575L15.6164 5.1692C16.9966 4.47362 19.3276 4.47362 20.7078 5.1692L21.3553 4.1912L15.6201 1.29913C13.8774 0.421188 11.1745 0.39698 9.37992 1.22812L9.2208 1.29913C8.26383 1.77986 7.41812 2.60825 6.83757 3.55038C5.58585 3.5218 4.37833 3.76013 3.46718 4.21862C1.72815 5.09495 0.353565 7.1139 0.277713 8.88915L0.266602 9.05054C0.266602 10.0038 0.65799 11.0448 1.29128 11.9479C0.642442 12.8835 0.275861 13.9119 0.275861 14.8282C0.275861 16.455 1.40621 18.3286 2.9325 19.347L2.90477 19.3906L3.45978 19.6714C4.3774 20.1345 5.59656 20.3702 6.86015 20.3411C7.40243 21.2538 8.21667 22.022 9.21714 22.565ZM2.14778 12.9414C1.77712 13.5841 1.56719 14.2603 1.56719 14.8476C1.56719 16.2371 2.73271 17.9994 4.11285 18.6934L4.3848 18.8192C4.98997 19.051 5.63932 19.1824 6.29962 19.2066C6.12288 18.7326 6.02933 18.2381 6.02211 17.7396V15.1664L3.45978 13.876C2.98954 13.6391 2.54608 13.3183 2.14778 12.9414ZM6.02211 13.8683L4.1147 12.9077C3.66939 12.6814 3.24654 12.3448 2.87798 11.946C3.22501 11.5717 3.64221 11.2501 4.11285 10.9953L6.02211 10.0269V13.8683ZM7.31344 15.8167V17.7154C7.32665 18.1974 7.43882 18.6735 7.6446 19.121C8.18753 19.0523 8.71195 18.8993 9.19307 18.6692L11.0847 17.7158L7.31344 15.8167ZM12.4094 18.3829L9.85911 19.6681C9.36337 19.9131 8.82735 20.09 8.2699 20.1926C8.67491 20.7575 9.22219 21.2344 9.87017 21.587C11.2503 22.281 13.5832 22.281 14.9615 21.587L17.4819 20.3174C16.6032 20.2622 15.7481 20.043 14.9745 19.6746L12.4094 18.3829ZM13.6973 17.7338L15.622 18.703C16.2442 18.9937 16.9306 19.1648 17.6348 19.205C18.6493 19.2795 19.671 19.1388 20.4391 18.8278L20.7059 18.6934C20.999 18.5425 21.2692 18.3604 21.5107 18.1511C21.5749 18.0967 21.6259 18.0317 21.6607 17.9597C21.6955 17.8877 21.7134 17.8104 21.7134 17.7323C21.7134 17.6544 21.6955 17.577 21.6607 17.5051C21.6259 17.4331 21.5749 17.3681 21.5107 17.3135C21.2718 17.1069 21.0047 16.927 20.7152 16.7777C19.3276 16.0789 16.9836 16.0806 15.5942 16.7777L13.6973 17.7338ZM2.14221 10.9438C1.81352 10.3701 1.60392 9.75758 1.57274 9.19579V9.0441C1.57274 7.65295 2.73828 5.8922 4.11841 5.19662C4.69626 4.90554 5.469 4.72724 6.29013 4.6859C6.11978 5.16844 6.02581 5.65636 6.02581 6.123V8.70519L3.46905 9.99628C2.97705 10.2574 2.53072 10.5766 2.14221 10.9438ZM7.65317 4.74015C7.44555 5.21565 7.32636 5.70054 7.32636 6.14719V8.07092L11.121 6.15986L9.20974 5.19662C8.72292 4.96902 8.1966 4.81502 7.65317 4.74015ZM8.26513 3.69469C8.81833 3.80408 9.35304 3.98004 9.85356 4.21862L12.4136 5.50886L14.9819 4.21539C15.7558 3.8468 16.6112 3.62671 17.4905 3.56984L14.9782 2.3062C13.5999 1.61061 11.267 1.61061 9.88684 2.3062L9.73142 2.37075C9.18073 2.67779 8.67171 3.15043 8.26513 3.69469Z" fill="url(#paint0_linear_208_1290)"/>
<defs>
<linearGradient id="paint0_linear_208_1290" x1="20.6171" y1="4.33412" x2="3.70442" y2="23.3543" gradientUnits="userSpaceOnUse">
<stop stop-color="#00BDE3"/>
<stop offset="1" stop-color="#0082D9"/>
</linearGradient>
</defs>
</svg>
