<svg width="64" height="86" viewBox="0 0 64 86" fill="none" xmlns="http://www.w3.org/2000/svg">
<path d="M62 32.314C62 49.0745 48.5502 62.6281 32 62.6281C15.4498 62.6281 2 49.0745 2 32.314C2 15.5536 15.4498 2 32 2C48.5502 2 62 15.5536 62 32.314Z" stroke="#FDFDFD" stroke-width="4"/>
<path d="M24.9565 24.5868C24.9565 28.5443 28.1283 31.719 32 31.719C35.8716 31.719 39.0435 28.5443 39.0435 24.5868C39.0435 20.6293 35.8716 17.4546 32 17.4546C28.1283 17.4546 24.9565 20.6293 24.9565 24.5868Z" stroke="#FDFDFD" stroke-width="4"/>
<line x1="11.7391" y1="73.1653" x2="52.2609" y2="73.1653" stroke="#FDFDFD" stroke-width="4" stroke-linecap="round"/>
<line x1="17.3043" y1="83.7025" x2="31.3913" y2="83.7025" stroke="#FDFDFD" stroke-width="4" stroke-linecap="round"/>
<line x1="40.2609" y1="83.7025" x2="47.3913" y2="83.7025" stroke="#FDFDFD" stroke-width="4" stroke-linecap="round"/>
<path fill-rule="evenodd" clip-rule="evenodd" d="M41.9284 48.4711C40.3755 44.2283 36.3395 41.2314 31.6522 41.2314C26.965 41.2314 22.929 44.2283 21.376 48.4711H17.1896C18.88 42.0015 24.7145 37.2314 31.6522 37.2314C38.59 37.2314 44.4245 42.0015 46.1149 48.4711H41.9284Z" fill="#FDFDFD"/>
</svg>
